<svg width="32" height="32" viewBox="0 0 32 32" fill="none" xmlns="http://www.w3.org/2000/svg">
<path d="M16.0001 2.66675C8.64808 2.66675 2.66675 8.64808 2.66675 16.0001V21.5241C2.66675 22.8894 3.86275 24.0001 5.33341 24.0001H6.66675C7.02037 24.0001 7.35951 23.8596 7.60956 23.6096C7.8596 23.3595 8.00008 23.0204 8.00008 22.6667V15.8094C8.00008 15.4558 7.8596 15.1167 7.60956 14.8666C7.35951 14.6166 7.02037 14.4761 6.66675 14.4761H5.45608C6.19741 9.31608 10.6374 5.33341 16.0001 5.33341C21.3627 5.33341 25.8027 9.31608 26.5441 14.4761H25.3334C24.9798 14.4761 24.6407 14.6166 24.3906 14.8666C24.1406 15.1167 24.0001 15.4558 24.0001 15.8094V24.0001C24.0001 25.4707 22.8041 26.6667 21.3334 26.6667H18.6667V25.3334H13.3334V29.3334H21.3334C24.2747 29.3334 26.6667 26.9414 26.6667 24.0001C28.1374 24.0001 29.3334 22.8894 29.3334 21.5241V16.0001C29.3334 8.64808 23.3521 2.66675 16.0001 2.66675Z" fill="#121629"/>
</svg>
