<svg width="32" height="32" viewBox="0 0 32 32" fill="none" xmlns="http://www.w3.org/2000/svg">
<path d="M14.7546 10.6719L14.9999 10.6652H24.9999C26.1065 10.6651 27.1713 11.0884 27.9758 11.8483C28.7803 12.6082 29.2636 13.6471 29.3266 14.7519L29.3332 14.9986V17.0786C28.7381 16.5074 28.0647 16.0239 27.3332 15.6426V14.9986C27.3332 14.3797 27.0874 13.7862 26.6498 13.3486C26.2122 12.9111 25.6187 12.6652 24.9999 12.6652H14.9999C14.4143 12.6653 13.8501 12.8855 13.4194 13.2821C12.9886 13.6788 12.7227 14.223 12.6746 14.8066L12.6666 14.9986V24.9986C12.6666 25.5844 12.887 26.1487 13.284 26.5795C13.6809 27.0103 14.2254 27.276 14.8092 27.3239L14.9999 27.3319H15.6426C16.0252 28.0652 16.5092 28.7386 17.0772 29.3319H14.9999C13.893 29.332 12.8281 28.9085 12.0236 28.1483C11.2191 27.3882 10.7359 26.349 10.6732 25.2439L10.6666 24.9999V14.9999C10.6665 13.893 11.09 12.8281 11.8501 12.0236C12.6103 11.2191 13.6495 10.7359 14.7546 10.6732V10.6719ZM20.7759 5.6439L20.8452 5.8799L21.7692 9.33056H19.6986L18.9146 6.39723C18.8353 6.10108 18.6985 5.82345 18.512 5.5802C18.3254 5.33695 18.0927 5.13284 17.8273 4.97955C17.5618 4.82625 17.2687 4.72677 16.9648 4.6868C16.6608 4.64682 16.352 4.66713 16.0559 4.74656L6.39723 7.3359C5.8334 7.48709 5.34672 7.84414 5.03324 8.33658C4.71976 8.82901 4.60225 9.42106 4.7039 9.9959L4.74656 10.1932L7.3359 19.8519C7.45735 20.3058 7.71299 20.7124 8.06937 21.0186C8.42574 21.3247 8.86624 21.5162 9.33323 21.5679V23.5759C8.46633 23.5242 7.63491 23.2134 6.94669 22.6838C6.25847 22.1541 5.74515 21.43 5.47323 20.6052L5.4039 20.3706L2.8159 10.7106C2.52923 9.64173 2.66234 8.50372 3.18793 7.52989C3.71352 6.55607 4.59176 5.82021 5.64256 5.47323L5.8799 5.4039L15.5386 2.8159C16.6074 2.52923 17.7454 2.66234 18.7192 3.18793C19.6931 3.71352 20.4289 4.59309 20.7759 5.6439ZM30.6666 23.3332C30.6666 21.3883 29.8939 19.523 28.5187 18.1478C27.1434 16.7725 25.2782 15.9999 23.3332 15.9999C21.3883 15.9999 19.523 16.7725 18.1478 18.1478C16.7725 19.523 15.9999 21.3883 15.9999 23.3332C15.9999 25.2782 16.7725 27.1434 18.1478 28.5187C19.523 29.8939 21.3883 30.6666 23.3332 30.6666C25.2782 30.6666 27.1434 29.8939 28.5187 28.5187C29.8939 27.1434 30.6666 25.2782 30.6666 23.3332ZM23.2132 18.6759L23.3332 18.6666L23.4532 18.6772C23.5864 18.7016 23.7091 18.7659 23.8048 18.8616C23.9006 18.9574 23.9649 19.08 23.9892 19.2132L23.9999 19.3332V22.6666L27.3399 22.6679L27.4599 22.6786C27.5931 22.7029 27.7157 22.7672 27.8115 22.863C27.9072 22.9587 27.9716 23.0814 27.9959 23.2146L28.0066 23.3346L27.9959 23.4546C27.9715 23.588 27.907 23.7107 27.811 23.8065C27.7149 23.9023 27.592 23.9665 27.4586 23.9906L27.3386 24.0012H24.0012V27.3386L23.9906 27.4586C23.9662 27.5918 23.9019 27.7144 23.8062 27.8102C23.7104 27.9059 23.5878 27.9702 23.4546 27.9946L23.3346 28.0052L23.2146 27.9946C23.0814 27.9702 22.9587 27.9059 22.863 27.8102C22.7672 27.7144 22.7029 27.5918 22.6786 27.4586L22.6679 27.3386V23.9999H19.3306L19.2106 23.9892C19.0774 23.9649 18.9547 23.9006 18.859 23.8048C18.7632 23.7091 18.6989 23.5864 18.6746 23.4532L18.6639 23.3332L18.6746 23.2132C18.6989 23.08 18.7632 22.9574 18.859 22.8616C18.9547 22.7659 19.0774 22.7016 19.2106 22.6772L19.3306 22.6666H22.6666V19.3332L22.6772 19.2132C22.7013 19.0798 22.7655 18.9569 22.8613 18.8608C22.9571 18.7648 23.0798 18.7003 23.2132 18.6759Z" fill="#121629"/>
</svg>
