<svg width="32" height="32" viewBox="0 0 32 32" fill="none" xmlns="http://www.w3.org/2000/svg">
<path d="M29.3334 13.3333V7.99992C29.3334 6.53325 28.1334 5.33325 26.6667 5.33325H5.33341C3.86675 5.33325 2.68008 6.53325 2.68008 7.99992V13.3333C4.14675 13.3333 5.33341 14.5333 5.33341 15.9999C5.33341 17.4666 4.14675 18.6666 2.66675 18.6666V23.9999C2.66675 25.4666 3.86675 26.6666 5.33341 26.6666H26.6667C28.1334 26.6666 29.3334 25.4666 29.3334 23.9999V18.6666C27.8667 18.6666 26.6667 17.4666 26.6667 15.9999C26.6667 14.5333 27.8667 13.3333 29.3334 13.3333ZM26.6667 11.3866C25.0801 12.3066 24.0001 14.0399 24.0001 15.9999C24.0001 17.9599 25.0801 19.6933 26.6667 20.6133V23.9999H5.33341V20.6133C6.92008 19.6933 8.00008 17.9599 8.00008 15.9999C8.00008 14.0266 6.93341 12.3066 5.34675 11.3866L5.33341 7.99992H26.6667V11.3866ZM12.0934 21.3333L16.0001 18.8266L19.9067 21.3333L18.7201 16.8533L22.3067 13.9199L17.6801 13.6399L16.0001 9.33325L14.3067 13.6266L9.68008 13.9066L13.2667 16.8399L12.0934 21.3333Z" fill="#121629"/>
</svg>
