<svg width="32" height="32" viewBox="0 0 32 32" fill="none" xmlns="http://www.w3.org/2000/svg">
<path fill-rule="evenodd" clip-rule="evenodd" d="M7.48 4.4C7.43582 4.4 7.4 4.43582 7.4 4.48V27.52C7.4 27.5642 7.43582 27.6 7.48 27.6H25.4C25.4442 27.6 25.48 27.5642 25.48 27.52V4.48C25.48 4.43582 25.4442 4.4 25.4 4.4H7.48ZM5 4.48C5 3.11033 6.11033 2 7.48 2H25.4C26.7697 2 27.88 3.11033 27.88 4.48V27.52C27.88 28.8897 26.7697 30 25.4 30H7.48C6.11033 30 5 28.8897 5 27.52V4.48Z" fill="#121629"/>
<path fill-rule="evenodd" clip-rule="evenodd" d="M10.1206 3.2C10.1206 2.53726 10.6579 2 11.3206 2H17.0806C17.7433 2 18.2806 2.53726 18.2806 3.2V13.44C18.2806 13.9126 18.0033 14.3411 17.5722 14.5347C17.1411 14.7283 16.6366 14.6508 16.2834 14.3369L14.2006 12.4855L12.1178 14.3369C11.7647 14.6508 11.2601 14.7283 10.829 14.5347C10.3979 14.3411 10.1206 13.9126 10.1206 13.44V3.2ZM12.5206 4.4V10.7678L13.4034 9.98311C13.858 9.57896 14.5432 9.57896 14.9978 9.98311L15.8806 10.7678V4.4H12.5206Z" fill="#121629"/>
<path fill-rule="evenodd" clip-rule="evenodd" d="M10.1206 18.5601C10.1206 17.8974 10.6579 17.3601 11.3206 17.3601H17.7206C18.3833 17.3601 18.9206 17.8974 18.9206 18.5601C18.9206 19.2228 18.3833 19.7601 17.7206 19.7601H11.3206C10.6579 19.7601 10.1206 19.2228 10.1206 18.5601ZM10.1206 22.4001C10.1206 21.7374 10.6579 21.2001 11.3206 21.2001H21.5606C22.2233 21.2001 22.7606 21.7374 22.7606 22.4001C22.7606 23.0628 22.2233 23.6001 21.5606 23.6001H11.3206C10.6579 23.6001 10.1206 23.0628 10.1206 22.4001Z" fill="#121629"/>
</svg>
