<svg width="24" height="24" viewBox="0 0 24 24" fill="none" xmlns="http://www.w3.org/2000/svg">
<rect width="24" height="24" rx="12" fill="white"/>
<path fill-rule="evenodd" clip-rule="evenodd" d="M15.1111 5H8.88889C6.74112 5 5 6.74112 5 8.88889V15.1111C5 17.2589 6.74112 19 8.88889 19H15.1111C17.2589 19 19 17.2589 19 15.1111V8.88889C19 6.74112 17.2589 5 15.1111 5ZM17.6389 15.1111C17.6346 16.5054 16.5054 17.6346 15.1111 17.6389H8.88889C7.49461 17.6346 6.36538 16.5054 6.36111 15.1111V8.88889C6.36538 7.49461 7.49461 6.36538 8.88889 6.36111H15.1111C16.5054 6.36538 17.6346 7.49461 17.6389 8.88889V15.1111ZM15.6944 9.08333C16.124 9.08333 16.4722 8.73511 16.4722 8.30556C16.4722 7.876 16.124 7.52778 15.6944 7.52778C15.2649 7.52778 14.9167 7.876 14.9167 8.30556C14.9167 8.73511 15.2649 9.08333 15.6944 9.08333ZM12 8.5C10.067 8.5 8.5 10.067 8.5 12C8.5 13.933 10.067 15.5 12 15.5C13.933 15.5 15.5 13.933 15.5 12C15.5021 11.0711 15.134 10.1797 14.4771 9.52284C13.8203 8.86601 12.9289 8.49793 12 8.5ZM9.86111 12C9.86111 13.1813 10.8187 14.1389 12 14.1389C13.1813 14.1389 14.1389 13.1813 14.1389 12C14.1389 10.8187 13.1813 9.86111 12 9.86111C10.8187 9.86111 9.86111 10.8187 9.86111 12Z" fill="black"/>
</svg>
