<svg width="156" height="16" viewBox="0 0 156 16" fill="none" xmlns="http://www.w3.org/2000/svg">
<path d="M8.35083 10.6621L3.42384 3.05176e-05H0V15.9984H2.71161V4.7557L7.12791 14.3345H9.57133L13.9917 4.68262V15.9984H16.7017V3.05176e-05H13.269L8.35083 10.6621Z" fill="white"/>
<path d="M61.5142 3.05176e-05H57.9161L51.6867 6.64849H50.5811V3.05176e-05H47.8687V15.9984H50.5803V9.26402H51.6602L58.2646 15.9984H61.996L53.9905 7.85547L61.5142 3.05176e-05Z" fill="white"/>
<path d="M101.882 11.0998L93.322 3.05176e-05H91.032V15.9984H93.7436V4.89864L102.303 15.9984H104.593V3.05176e-05H101.881L101.882 11.0998Z" fill="white"/>
<path d="M132.41 3.05176e-05V2.61557H137.621V15.9984H140.322V2.61557H145.533V3.05176e-05H132.41Z" fill="white"/>
<path d="M119.748 2.28388e-05H119.742C119.249 -0.000515453 118.767 0.147303 118.359 0.424272C117.951 0.701241 117.635 1.09456 117.454 1.55312L111.98 15.2516C111.972 15.2692 111.856 15.5455 111.635 15.9984H114.866L119.752 3.77436L124.737 16H127.931L122.038 1.54509C121.855 1.08778 121.538 0.695986 121.13 0.420498C120.722 0.14501 120.24 -0.00147644 119.748 2.28388e-05Z" fill="white"/>
<path d="M34.3492 1.55313C34.1675 1.09456 33.8521 0.701245 33.444 0.424276C33.0359 0.147307 32.554 -0.000511526 32.0608 2.67655e-05H32.0552C31.5635 -0.00170889 31.0826 0.144057 30.6747 0.418488C30.2667 0.692918 29.9504 1.0834 29.7667 1.53948L23.8713 15.9944H27.0655L32.0503 3.77437L36.9356 15.9984H40.1659C39.9483 15.5511 39.8335 15.2757 39.827 15.2628L34.3492 1.55313Z" fill="white"/>
<path d="M75.9243 3.07405e-05H75.8794C75.3877 -0.00170491 74.9068 0.144061 74.4989 0.418492C74.0909 0.692922 73.7747 1.0834 73.5909 1.53948L67.6956 15.9944H71.0431L75.9019 3.8362L80.7606 15.9944H84.1081L78.2144 1.53948C78.0304 1.08321 77.7139 0.692616 77.3057 0.418179C76.8974 0.143741 76.4162 -0.00191776 75.9243 3.07405e-05Z" fill="white"/>
<path d="M149.909 1.60453C150.054 1.27975 150.264 0.987937 150.525 0.74687C150.786 0.509199 151.09 0.323332 151.42 0.199189C152.104 -0.0588686 152.859 -0.0588686 153.544 0.199189C153.874 0.323475 154.177 0.509333 154.437 0.74687C154.699 0.987846 154.909 1.27967 155.055 1.60453C155.212 1.95817 155.291 2.34177 155.285 2.7288C155.295 3.28061 155.133 3.82182 154.821 4.27689C154.509 4.73196 154.062 5.07818 153.544 5.26724C152.858 5.52018 152.105 5.52018 151.42 5.26724C150.901 5.07818 150.455 4.73196 150.143 4.27689C149.83 3.82182 149.668 3.28061 149.678 2.7288C149.673 2.34185 149.751 1.95831 149.908 1.60453H149.909ZM150.584 3.59047C150.685 3.84397 150.833 4.07571 151.022 4.27307C151.207 4.46558 151.429 4.61833 151.675 4.72197C151.93 4.82799 152.202 4.88258 152.478 4.88258C152.754 4.88258 153.027 4.82799 153.281 4.72197C153.527 4.61823 153.75 4.4655 153.935 4.27307C154.123 4.07516 154.273 3.84362 154.376 3.59047C154.487 3.31679 154.541 3.02385 154.537 2.7288C154.542 2.43477 154.487 2.14281 154.376 1.87034C154.273 1.61937 154.123 1.39022 153.935 1.19497C153.745 1.00199 153.519 0.848964 153.27 0.744958C153.02 0.640951 152.752 0.588078 152.482 0.589472C152.205 0.587668 151.93 0.642315 151.675 0.750082C151.43 0.853608 151.208 1.00514 151.022 1.19578C150.833 1.39046 150.685 1.61982 150.584 1.87114C150.475 2.14369 150.42 2.43514 150.423 2.7288C150.42 3.02375 150.475 3.31647 150.584 3.59047ZM152.547 1.19578C152.855 1.178 153.162 1.24908 153.43 1.40055C153.538 1.48061 153.624 1.58729 153.678 1.71017C153.732 1.83305 153.754 1.96793 153.74 2.10162C153.743 2.22501 153.722 2.34779 153.678 2.46299C153.64 2.55557 153.581 2.63807 153.506 2.7039C153.431 2.76857 153.344 2.81819 153.25 2.85006C153.148 2.88521 153.043 2.90733 152.936 2.91591L153.759 4.2546H153.124L152.379 2.94562H152V4.2546H151.393V1.19337L152.547 1.19578ZM152.54 2.47343C152.687 2.47842 152.834 2.45356 152.971 2.40035C153.083 2.35163 153.139 2.23466 153.139 2.04942C153.143 1.97914 153.122 1.90968 153.081 1.85267C153.041 1.80311 152.99 1.76421 152.931 1.73944C152.866 1.71148 152.797 1.69309 152.727 1.68483C152.655 1.67523 152.583 1.6704 152.511 1.67038H152V2.47343H152.54Z" fill="white"/>
</svg>
