<svg width="19" height="18" viewBox="0 0 19 18" fill="none" xmlns="http://www.w3.org/2000/svg">
<path d="M2.21753 5.83498V13.1325C2.21753 14.5575 3.23003 15.1425 4.46003 14.4375L6.22253 13.4325C6.60503 13.215 7.24253 13.1925 7.64003 13.395L11.5775 15.3675C11.975 15.5625 12.6125 15.5475 12.995 15.33L16.2425 13.47C16.655 13.23 17 12.645 17 12.165V4.86748C17 3.44248 15.9875 2.85748 14.7575 3.56248L12.995 4.56748C12.6125 4.78498 11.975 4.80748 11.5775 4.60498L7.64003 2.63998C7.24253 2.44498 6.60503 2.45998 6.22253 2.67748L2.97503 4.53748C2.55503 4.77748 2.21753 5.36248 2.21753 5.83498Z" stroke="white" stroke-width="1.5" stroke-linecap="round" stroke-linejoin="round"/>
<path d="M6.91992 3V12.75" stroke="white" stroke-width="1.5" stroke-linecap="round" stroke-linejoin="round"/>
<path d="M12.2976 4.96503V15" stroke="white" stroke-width="1.5" stroke-linecap="round" stroke-linejoin="round"/>
</svg>
