<svg width="32" height="32" viewBox="0 0 32 32" fill="none" xmlns="http://www.w3.org/2000/svg">
<path d="M21.1333 29.0668L18.2667 26.2001C18.0222 25.9556 17.9 25.6445 17.9 25.2668C17.9 24.889 18.0222 24.5779 18.2667 24.3334C18.5111 24.089 18.8222 23.9668 19.2 23.9668C19.5778 23.9668 19.8889 24.089 20.1333 24.3334L22.0333 26.2334L26.7667 21.5001C27.0111 21.2556 27.3169 21.1334 27.684 21.1334C28.0511 21.1334 28.3676 21.2668 28.6333 21.5334C28.8778 21.8001 29 22.1112 29 22.4668C29 22.8223 28.8778 23.1334 28.6333 23.4001L23 29.0668C22.7556 29.3112 22.4444 29.4334 22.0667 29.4334C21.6889 29.4334 21.3778 29.3112 21.1333 29.0668ZM12 20.5334L10.8 21.7334C10.5556 21.9779 10.2444 22.1001 9.86667 22.1001C9.48889 22.1001 9.17778 21.9779 8.93334 21.7334C8.68889 21.489 8.56667 21.1779 8.56667 20.8001C8.56667 20.4223 8.68889 20.1112 8.93334 19.8668L10.1333 18.6668L8.93334 17.4668C8.68889 17.2223 8.56667 16.9112 8.56667 16.5334C8.56667 16.1556 8.68889 15.8445 8.93334 15.6001C9.17778 15.3556 9.48889 15.2334 9.86667 15.2334C10.2444 15.2334 10.5556 15.3556 10.8 15.6001L12 16.8001L13.2 15.6001C13.4444 15.3556 13.7556 15.2334 14.1333 15.2334C14.5111 15.2334 14.8222 15.3556 15.0667 15.6001C15.3111 15.8445 15.4333 16.1556 15.4333 16.5334C15.4333 16.9112 15.3111 17.2223 15.0667 17.4668L13.8667 18.6668L15.0667 19.8668C15.3111 20.1112 15.4333 20.4223 15.4333 20.8001C15.4333 21.1779 15.3111 21.489 15.0667 21.7334C14.8222 21.9779 14.5111 22.1001 14.1333 22.1001C13.7556 22.1001 13.4444 21.9779 13.2 21.7334L12 20.5334ZM6.66667 29.3334C5.93334 29.3334 5.30534 29.0721 4.78267 28.5494C4.26 28.0268 3.99911 27.3992 4 26.6668V8.00009C4 7.26675 4.26134 6.63875 4.784 6.11609C5.30667 5.59342 5.93422 5.33253 6.66667 5.33342H8V4.00009C8 3.62231 8.128 3.30542 8.384 3.04942C8.64 2.79342 8.95645 2.66586 9.33334 2.66675C9.71111 2.66675 10.028 2.79475 10.284 3.05075C10.54 3.30675 10.6676 3.6232 10.6667 4.00009V5.33342H21.3333V4.00009C21.3333 3.62231 21.4613 3.30542 21.7173 3.04942C21.9733 2.79342 22.2898 2.66586 22.6667 2.66675C23.0444 2.66675 23.3613 2.79475 23.6173 3.05075C23.8733 3.30675 24.0009 3.6232 24 4.00009V5.33342H25.3333C26.0667 5.33342 26.6947 5.59475 27.2173 6.11742C27.74 6.64009 28.0009 7.26764 28 8.00009V16.4668L25.3333 19.1668V13.3334H6.66667V26.6668H15L17.6333 29.3334H6.66667ZM6.66667 10.6668H25.3333V8.00009H6.66667V10.6668Z" fill="#121629"/>
</svg>
