<svg width="24" height="24" viewBox="0 0 24 24" fill="none" xmlns="http://www.w3.org/2000/svg">
<rect width="24" height="24" rx="12" fill="white"/>
<path d="M10.8571 14.5714L15.3057 12L10.8571 9.42857V14.5714ZM20.7657 7.86C20.8771 8.26286 20.9543 8.80286 21.0057 9.48857C21.0657 10.1743 21.0914 10.7657 21.0914 11.28L21.1429 12C21.1429 13.8771 21.0057 15.2571 20.7657 16.14C20.5514 16.9114 20.0543 17.4086 19.2829 17.6229C18.88 17.7343 18.1429 17.8114 17.0114 17.8629C15.8971 17.9229 14.8771 17.9486 13.9343 17.9486L12.5714 18C8.98 18 6.74286 17.8629 5.86 17.6229C5.08857 17.4086 4.59143 16.9114 4.37714 16.14C4.26571 15.7371 4.18857 15.1971 4.13714 14.5114C4.07714 13.8257 4.05143 13.2343 4.05143 12.72L4 12C4 10.1229 4.13714 8.74286 4.37714 7.86C4.59143 7.08857 5.08857 6.59143 5.86 6.37714C6.26286 6.26571 7 6.18857 8.13143 6.13714C9.24571 6.07714 10.2657 6.05143 11.2086 6.05143L12.5714 6C16.1629 6 18.4 6.13714 19.2829 6.37714C20.0543 6.59143 20.5514 7.08857 20.7657 7.86Z" fill="black"/>
</svg>
