<svg width="24" height="24" viewBox="0 0 24 24" fill="none" xmlns="http://www.w3.org/2000/svg">
<g clip-path="url(#clip0_43_365)">
<rect width="24" height="24" rx="12" fill="white"/>
<path fill-rule="evenodd" clip-rule="evenodd" d="M11.997 5C10.8831 5 9.81477 5.4425 9.02712 6.23015C8.23947 7.0178 7.79697 8.08609 7.79697 9.2V10.5125L7.16697 10.04C7.09343 9.98484 7.00975 9.94471 6.9207 9.9219C6.83165 9.89909 6.73898 9.89404 6.64797 9.90704C6.55697 9.92004 6.46942 9.95083 6.39032 9.99767C6.31122 10.0445 6.24212 10.1065 6.18697 10.18C6.13181 10.2535 6.09168 10.3372 6.06887 10.4263C6.04606 10.5153 6.041 10.608 6.054 10.699C6.06701 10.79 6.0978 10.8775 6.14464 10.9566C6.19147 11.0357 6.25343 11.1048 6.32697 11.16L7.63317 12.14C7.32237 12.9576 6.56427 13.813 5.33717 14.5501C5.25668 14.5995 5.18691 14.6645 5.13196 14.7413C5.07702 14.8181 5.03802 14.9052 5.01728 14.9973C4.99653 15.0895 4.99445 15.1848 5.01116 15.2778C5.02787 15.3707 5.06303 15.4594 5.11457 15.5385C5.89717 16.7124 7.13897 17.6 8.49697 17.6C9.74577 17.6 10.6019 19 11.997 19C13.4047 19 14.2433 17.6 15.497 17.6C16.855 17.6 18.0968 16.7124 18.8794 15.5385C18.9309 15.4594 18.9661 15.3707 18.9828 15.2778C18.9995 15.1848 18.9974 15.0895 18.9767 14.9973C18.9559 14.9052 18.9169 14.8181 18.862 14.7413C18.807 14.6645 18.7373 14.5995 18.6568 14.5501C17.4297 13.813 16.6716 12.9576 16.3608 12.14L17.667 11.16C17.8155 11.0486 17.9137 10.8828 17.9399 10.699C17.9662 10.5152 17.9184 10.3285 17.807 10.18C17.6956 10.0315 17.5297 9.93329 17.346 9.90704C17.1622 9.88078 16.9755 9.92861 16.827 10.04L16.197 10.5125V9.2C16.197 8.08609 15.7545 7.0178 14.9668 6.23015C14.1792 5.4425 13.1109 5 11.997 5Z" fill="black"/>
</g>
<defs>
<clipPath id="clip0_43_365">
<rect width="24" height="24" rx="12" fill="white"/>
</clipPath>
</defs>
</svg>
