<svg width="32" height="32" viewBox="0 0 32 32" fill="none" xmlns="http://www.w3.org/2000/svg">
<g clip-path="url(#clip0_43_279)">
<path d="M25.3334 4C26.3537 3.99994 27.3354 4.38977 28.0778 5.08971C28.8201 5.78966 29.2669 6.74681 29.3267 7.76533L29.3334 8V21.3333C29.3335 22.3536 28.9436 23.3354 28.2437 24.0777C27.5438 24.82 26.5866 25.2668 25.5681 25.3267L25.3334 25.3333H20.4041L16.9241 27.6533C16.6786 27.8168 16.394 27.9122 16.0996 27.9298C15.8051 27.9474 15.5113 27.8865 15.2481 27.7533L15.0747 27.6533L11.5974 25.3333H6.66675C5.64647 25.3334 4.66473 24.9436 3.9224 24.2436C3.18007 23.5437 2.73327 22.5865 2.67341 21.568L2.66675 21.3333V8C2.66669 6.97972 3.05651 5.99798 3.75646 5.25565C4.4564 4.51332 5.41356 4.06652 6.43208 4.00667L6.66675 4H25.3334ZM25.3334 6.66667H6.66675C6.34017 6.66671 6.02497 6.78661 5.78092 7.00362C5.53687 7.22063 5.38096 7.51967 5.34275 7.844L5.33341 8V21.3333C5.33346 21.6599 5.45336 21.9751 5.67037 22.2192C5.88738 22.4632 6.18641 22.6191 6.51075 22.6573L6.66675 22.6667H11.5961C12.046 22.6666 12.4886 22.7803 12.8827 22.9973L13.0761 23.1147L16.0001 25.064L18.9241 23.1147C19.2986 22.8649 19.7302 22.714 20.1787 22.676L20.4041 22.6667H25.3334C25.66 22.6666 25.9752 22.5467 26.2192 22.3297C26.4633 22.1127 26.6192 21.8137 26.6574 21.4893L26.6667 21.3333V8C26.6667 7.67342 26.5468 7.35822 26.3298 7.11417C26.1128 6.87012 25.8137 6.71421 25.4894 6.676L25.3334 6.66667ZM11.3334 13.3333C11.8638 13.3333 12.3726 13.544 12.7476 13.9191C13.1227 14.2942 13.3334 14.8029 13.3334 15.3333C13.3334 15.8638 13.1227 16.3725 12.7476 16.7475C12.3726 17.1226 11.8638 17.3333 11.3334 17.3333C10.803 17.3333 10.2943 17.1226 9.9192 16.7475C9.54413 16.3725 9.33341 15.8638 9.33341 15.3333C9.33341 14.8029 9.54413 14.2942 9.9192 13.9191C10.2943 13.544 10.803 13.3333 11.3334 13.3333ZM20.6667 13.3333C21.1972 13.3333 21.7059 13.544 22.081 13.9191C22.456 14.2942 22.6667 14.8029 22.6667 15.3333C22.6667 15.8638 22.456 16.3725 22.081 16.7475C21.7059 17.1226 21.1972 17.3333 20.6667 17.3333C20.1363 17.3333 19.6276 17.1226 19.2525 16.7475C18.8775 16.3725 18.6667 15.8638 18.6667 15.3333C18.6667 14.8029 18.8775 14.2942 19.2525 13.9191C19.6276 13.544 20.1363 13.3333 20.6667 13.3333Z" fill="#121629"/>
</g>
<defs>
<clipPath id="clip0_43_279">
<rect width="32" height="32" fill="white"/>
</clipPath>
</defs>
</svg>
