<svg width="32" height="32" viewBox="0 0 32 32" fill="none" xmlns="http://www.w3.org/2000/svg">
<path d="M14.6667 2.66675L24.3973 5.70675C24.6687 5.79147 24.9059 5.96072 25.0743 6.1898C25.2427 6.41887 25.3335 6.69578 25.3333 6.98008V9.33341H28C28.3536 9.33341 28.6928 9.47389 28.9428 9.72394C29.1929 9.97399 29.3333 10.3131 29.3333 10.6667V21.3334C29.3333 21.687 29.1929 22.0262 28.9428 22.2762C28.6928 22.5263 28.3536 22.6667 28 22.6667L23.7067 22.6681C23.1907 23.3481 22.564 23.9481 21.84 24.4414L14.6667 29.3334L7.49333 24.4427C6.4167 23.7087 5.53567 22.7227 4.92685 21.5706C4.31804 20.4185 3.99987 19.1352 4 17.8321V6.98008C4.00016 6.696 4.09105 6.4194 4.25942 6.19059C4.42778 5.96179 4.66483 5.79274 4.936 5.70808L14.6667 2.66675ZM14.6667 5.45875L6.66667 7.96008V17.8321C6.66648 18.6484 6.85367 19.4538 7.21382 20.1864C7.57397 20.919 8.09748 21.5591 8.744 22.0574L8.996 22.2387L14.6667 26.1067L19.7093 22.6667H13.3333C12.9797 22.6667 12.6406 22.5263 12.3905 22.2762C12.1405 22.0262 12 21.687 12 21.3334V10.6667C12 10.3131 12.1405 9.97399 12.3905 9.72394C12.6406 9.47389 12.9797 9.33341 13.3333 9.33341H22.6667V7.96008L14.6667 5.45875ZM14.6667 16.0001V20.0001H26.6667V16.0001H14.6667ZM14.6667 13.3334H26.6667V12.0001H14.6667V13.3334Z" fill="#121629"/>
</svg>
