<svg width="32" height="32" viewBox="0 0 32 32" fill="none" xmlns="http://www.w3.org/2000/svg">
<path fill-rule="evenodd" clip-rule="evenodd" d="M4.85245 4.85342C5.68698 4.01889 6.81886 3.55005 7.99907 3.55005H11.1991C11.8894 3.55005 12.4491 4.10969 12.4491 4.80005C12.4491 5.4904 11.8894 6.05005 11.1991 6.05005H7.99907C7.4819 6.05005 6.98591 6.25549 6.62021 6.62119C6.25452 6.98689 6.04907 7.48288 6.04907 8.00005V27.2C6.04907 27.7172 6.25452 28.2132 6.62021 28.5789C6.98591 28.9446 7.4819 29.15 7.99907 29.15H23.9991C24.5162 29.15 25.0122 28.9446 25.3779 28.5789C25.7436 28.2132 25.9491 27.7172 25.9491 27.2V8.00005C25.9491 7.48288 25.7436 6.98689 25.3779 6.62119C25.0122 6.25549 24.5162 6.05005 23.9991 6.05005H20.7991C20.1087 6.05005 19.5491 5.4904 19.5491 4.80005C19.5491 4.10969 20.1087 3.55005 20.7991 3.55005H23.9991C25.1793 3.55005 26.3112 4.01889 27.1457 4.85342C27.9802 5.68796 28.4491 6.81983 28.4491 8.00005V27.2C28.4491 28.3803 27.9802 29.5121 27.1457 30.3467C26.3112 31.1812 25.1793 31.65 23.9991 31.65H7.99907C6.81886 31.65 5.68698 31.1812 4.85245 30.3467C4.01791 29.5121 3.54907 28.3803 3.54907 27.2V8.00005C3.54907 6.81984 4.01791 5.68796 4.85245 4.85342Z" fill="#121629"/>
<path fill-rule="evenodd" clip-rule="evenodd" d="M14.4004 2.8501C13.8833 2.8501 13.3873 3.05554 13.0216 3.42124C12.6559 3.78694 12.4504 4.28293 12.4504 4.8001C12.4504 5.31727 12.6559 5.81326 13.0216 6.17896C13.3873 6.54465 13.8833 6.7501 14.4004 6.7501H17.6004C18.1176 6.7501 18.6136 6.54465 18.9793 6.17896C19.345 5.81326 19.5504 5.31727 19.5504 4.8001C19.5504 4.28293 19.345 3.78694 18.9793 3.42124C18.6136 3.05554 18.1176 2.8501 17.6004 2.8501H14.4004ZM11.2538 1.65347C12.0884 0.818936 13.2202 0.350098 14.4004 0.350098H17.6004C18.7807 0.350098 19.9125 0.818936 20.7471 1.65347C21.5816 2.48801 22.0504 3.61988 22.0504 4.8001C22.0504 5.98031 21.5816 7.11219 20.7471 7.94672C19.9125 8.78126 18.7807 9.2501 17.6004 9.2501H14.4004C13.2202 9.2501 12.0884 8.78126 11.2538 7.94672C10.4193 7.11219 9.95044 5.98031 9.95044 4.8001C9.95044 3.61988 10.4193 2.48801 11.2538 1.65347ZM16.0004 11.5501C16.6908 11.5501 17.2504 12.1097 17.2504 12.8001V13.1501H19.2004C19.8908 13.1501 20.4504 13.7097 20.4504 14.4001C20.4504 15.0905 19.8908 15.6501 19.2004 15.6501H15.2004C14.8954 15.6501 14.6029 15.7713 14.3873 15.9869C14.1716 16.2026 14.0504 16.4951 14.0504 16.8001C14.0504 17.1051 14.1716 17.3976 14.3873 17.6133C14.6029 17.8289 14.8954 17.9501 15.2004 17.9501H16.8004C17.7685 17.9501 18.6969 18.3347 19.3814 19.0192C20.0659 19.7037 20.4504 20.6321 20.4504 21.6001C20.4504 22.5681 20.0659 23.4965 19.3814 24.181C18.8038 24.7586 18.0526 25.1226 17.2504 25.2223V25.6001C17.2504 26.2905 16.6908 26.8501 16.0004 26.8501C15.3101 26.8501 14.7504 26.2905 14.7504 25.6001V25.2501H12.8004C12.1101 25.2501 11.5504 24.6905 11.5504 24.0001C11.5504 23.3097 12.1101 22.7501 12.8004 22.7501H16.8004C17.1054 22.7501 17.3979 22.6289 17.6136 22.4133C17.8293 22.1976 17.9504 21.9051 17.9504 21.6001C17.9504 21.2951 17.8293 21.0026 17.6136 20.7869C17.3979 20.5713 17.1054 20.4501 16.8004 20.4501H15.2004C14.2324 20.4501 13.304 20.0655 12.6195 19.381C11.935 18.6965 11.5504 17.7681 11.5504 16.8001C11.5504 15.8321 11.935 14.9037 12.6195 14.2192C13.1971 13.6416 13.9483 13.2776 14.7504 13.1779V12.8001C14.7504 12.1097 15.3101 11.5501 16.0004 11.5501Z" fill="#121629"/>
</svg>
