<svg width="24" height="24" viewBox="0 0 24 24" fill="none" xmlns="http://www.w3.org/2000/svg">
<rect width="24" height="24" rx="12" fill="white"/>
<path d="M19.097 7.73914C18.7328 8.22504 18.2925 8.64889 17.7931 8.99433C17.7931 9.12125 17.7931 9.24818 17.7931 9.38216C17.7971 11.6871 16.8764 13.8973 15.2374 15.5173C13.5983 17.1372 11.3781 18.0313 9.07444 17.9992C7.74263 18.0036 6.42787 17.6996 5.23316 17.1107C5.16873 17.0825 5.12719 17.0188 5.12743 16.9485V16.8709C5.12743 16.7697 5.20948 16.6876 5.31069 16.6876C6.61983 16.6444 7.88226 16.1905 8.91938 15.3901C7.73443 15.3662 6.66827 14.6643 6.17762 13.5849C6.15284 13.526 6.16055 13.4583 6.19798 13.4064C6.23541 13.3546 6.29714 13.3261 6.36087 13.3311C6.721 13.3672 7.08474 13.3337 7.43221 13.2323C6.12412 12.9608 5.14123 11.8748 5.00056 10.5457C4.99557 10.4819 5.02414 10.4202 5.07597 10.3827C5.12779 10.3453 5.19537 10.3375 5.2543 10.3624C5.60533 10.5173 5.98427 10.5988 6.36792 10.602C5.22172 9.84978 4.72664 8.41887 5.16267 7.11861C5.20768 6.99226 5.31582 6.89892 5.44734 6.8729C5.57885 6.84687 5.71437 6.89199 5.80406 6.99168C7.35079 8.63785 9.47601 9.6188 11.7316 9.72769C11.6739 9.49715 11.6455 9.26021 11.647 9.02253C11.6681 7.77626 12.4393 6.66605 13.5994 6.21166C14.7595 5.75729 16.079 6.04865 16.9403 6.94937C17.5273 6.83753 18.0948 6.64036 18.6248 6.36409C18.6636 6.33985 18.7129 6.33985 18.7517 6.36409C18.7759 6.40293 18.7759 6.45217 18.7517 6.49101C18.495 7.07884 18.0613 7.57186 17.5112 7.90133C17.9929 7.84546 18.4662 7.73182 18.9209 7.56286C18.9591 7.5368 19.0094 7.5368 19.0477 7.56286C19.0798 7.57753 19.1038 7.60558 19.1132 7.63955C19.1227 7.67352 19.1168 7.70995 19.097 7.73914Z" fill="black"/>
</svg>
